# xmcd
#
# Track frame offsets: 
#        150
#        17480
#        39737
#        52925
#        71575
#        86342
#
# Disc length: 1309 seconds
#
# Revision: 0
# Processed by: cddbd v1.5.2PL0 Copyright (c) Steve Scherf et al.
# Submitted via: ExactAudioCopyFreeDBPlugin 1.0
#
DISCID=40051b06
DTITLE=John Gillard and Band - Legend of Old Gambler
DYEAR=1999
DGENRE=Blues
TTITLE0=Tell Tales
TTITLE1=Old Gambler
TTITLE2=Tony's Blues
TTITLE3=Seagull
TTITLE4=M.O.B.
TTITLE5=Sundown
EXTD=
EXTT0=
EXTT1=
EXTT2=
EXTT3=
EXTT4=
EXTT5=
PLAYORDER=
